<?xml version="1.0" standalone="no"?><!DOCTYPE svg PUBLIC "-//W3C//DTD SVG 1.1//EN" "http://www.w3.org/Graphics/SVG/1.1/DTD/svg11.dtd"><svg t="1783500548102" class="icon" viewBox="0 0 1024 1024" version="1.1" xmlns="http://www.w3.org/2000/svg" p-id="8657" xmlns:xlink="http://www.w3.org/1999/xlink" width="200" height="200"><path d="M880.506377 230.748385c8.990768 0 16.281825-7.30436 16.281825-16.295128l0-64.184835c0-8.990768-7.291057-16.295128-16.281825-16.295128L146.052912 133.973294c-9.004071 0-16.277732 7.30436-16.277732 16.295128l0 64.184835c0 8.990768 7.27366 16.295128 16.277732 16.295128l23.51046 0 0 450.170816-23.51046 0c-9.004071 0-16.277732 7.287987-16.277732 16.277732l0 16.295128c0 8.974395 7.27366 16.264429 16.277732 16.264429l356.379687 0 0 114.248044c-7.597025 3.952009-12.836353 11.808954-12.836353 20.951171 0 13.047154 10.600429 23.679305 23.682375 23.679305 13.07683 0 23.690562-10.632151 23.690562-23.679305 0-9.157567-5.239328-16.998139-12.83226-20.951171L524.136923 729.756489l356.370477 0c8.990768 0 16.281825-7.290033 16.281825-16.264429l0-16.295128c0-8.989745-7.291057-16.277732-16.281825-16.277732l-23.474644 0L857.032756 230.748385 880.506377 230.748385 880.506377 230.748385zM824.456826 674.008814 202.136232 674.008814 202.136232 230.748385l622.320595 0L824.456826 674.008814 824.456826 674.008814zM730.650347 564.985772 416.177096 564.985772c-6.800893 0-12.275581 5.51255-12.275581 12.308327 0 6.800893 5.475711 12.313443 12.275581 12.313443l314.473251 0c6.7968 0 12.292977-5.513574 12.292977-12.313443S737.446124 564.985772 730.650347 564.985772L730.650347 564.985772zM730.650347 433.295474 416.177096 433.295474c-6.800893 0-12.275581 5.508457-12.275581 12.30935 0 6.762007 5.475711 12.274558 12.275581 12.274558l314.473251 0c6.7968 0 12.292977-5.51255 12.292977-12.274558C742.942301 438.803931 737.446124 433.295474 730.650347 433.295474L730.650347 433.295474zM730.650347 300.712853 416.177096 300.712853c-6.800893 0-12.275581 5.508457-12.275581 12.276604 0 6.795776 5.475711 12.291954 12.275581 12.291954l314.473251 0c6.7968 0 12.292977-5.496178 12.292977-12.291954C742.942301 306.222333 737.446124 300.712853 730.650347 300.712853L730.650347 300.712853zM349.559862 273.944186l-53.518914 0c-6.78452 0-12.292977 5.507434-12.292977 12.307304l0 53.487192c0 6.817266 5.508457 12.294001 12.292977 12.294001l53.518914 0c6.779404 0 12.291954-5.476735 12.291954-12.294001L361.851816 286.252513C361.851816 279.45162 356.339266 273.944186 349.559862 273.944186L349.559862 273.944186zM349.559862 406.541133l-53.518914 0c-6.78452 0-12.292977 5.492084-12.292977 12.292977l0 53.502541c0 6.800893 5.508457 12.313443 12.292977 12.313443l53.518914 0c6.779404 0 12.291954-5.51255 12.291954-12.313443l0-53.502541C361.851816 412.033217 356.339266 406.541133 349.559862 406.541133L349.559862 406.541133zM349.559862 538.231431l-53.518914 0c-6.78452 0-12.292977 5.535063-12.292977 12.297071l0 53.498448c0 6.801916 5.508457 12.313443 12.292977 12.313443l53.518914 0c6.779404 0 12.291954-5.511527 12.291954-12.313443l0-53.498448C361.851816 543.766494 356.339266 538.231431 349.559862 538.231431L349.559862 538.231431zM349.559862 538.231431" fill="#272636" p-id="8658"></path></svg>