<?xml version="1.0" encoding="UTF-8"?>
<svg xmlns="http://www.w3.org/2000/svg" width="420" height="150" viewBox="0 0 420 150" role="img" aria-label="Chair of Health Informatics logo">
  <rect width="420" height="150" rx="12" fill="#f7fbff"/>
  <rect x="18" y="18" width="114" height="114" rx="10" fill="#0e396e"/>
  <path d="M49 82c0-20 11-34 29-34 11 0 20 5 25 14l-14 8c-2-5-6-8-11-8-8 0-13 8-13 20s5 20 13 20c5 0 9-3 11-8l14 8c-5 9-14 14-25 14-18 0-29-14-29-34Z" fill="#fff"/>
  <path d="M110 48h16v68h-16V90H91v26H75V48h16v27h19V48Z" fill="#fff" opacity=".92"/>
  <text x="154" y="64" fill="#12355b" font-family="Arial, Helvetica, sans-serif" font-size="25" font-weight="700">Chair of Health Informatics</text>
  <text x="154" y="98" fill="#50667e" font-family="Arial, Helvetica, sans-serif" font-size="17" font-weight="600">TUM School of Medicine and Health</text>
  <path d="M154 116h210" stroke="#56a5d8" stroke-width="5" stroke-linecap="round"/>
</svg>
