<?xml version="1.0" standalone="no"?><!DOCTYPE svg PUBLIC "-//W3C//DTD SVG 1.1//EN" "http://www.w3.org/Graphics/SVG/1.1/DTD/svg11.dtd"><svg t="1783500517947" class="icon" viewBox="0 0 1024 1024" version="1.1" xmlns="http://www.w3.org/2000/svg" p-id="7346" xmlns:xlink="http://www.w3.org/1999/xlink" width="200" height="200"><path d="M896 149.333333a42.666667 42.666667 0 0 1 42.666667 42.666667v640a42.666667 42.666667 0 0 1-42.666667 42.666667H128a42.666667 42.666667 0 0 1-42.666667-42.666667v-640a42.666667 42.666667 0 0 1 42.666667-42.666667h768zM874.666667 213.333333h-725.333334v597.333334h725.333334V213.333333z m-65.450667 202.24l6.912 0.853334v63.872l-12.544-0.938667c-20.736-1.834667-50.218667 1.408-86.016 14.336-52.096 18.773333-105.514667 54.357333-158.421333 110.933333l-11.306667 12.458667c-71.765333 81.024-179.029333 120.746667-319.573333 120.149333l-14.677334-0.213333v-64c130.773333 3.242667 225.706667-29.909333 286.336-98.346667 63.573333-71.808 129.92-117.333333 195.925334-141.184 45.013333-16.213333 83.754667-20.48 113.365333-17.92zM277.333333 298.666667a64 64 0 1 1 0 128 64 64 0 0 1 0-128z" fill="#000000" p-id="7347"></path></svg>